Coordinates
version=1
nRows=16
nColumns=42
inDegrees=yes

Units are S.I. units (second, meters, Newtons, ...)
If the header above contains a line with 'inDegrees', this indicates whether rotational values are in degrees (yes) or radians (no).

endheader
time	pelvis_tilt	pelvis_list	pelvis_rotation	pelvis_tx	pelvis_ty	pelvis_tz	hip_flexion_r	hip_adduction_r	hip_rotation_r	knee_angle_r	knee_adduction_r	knee_angle_r_beta	ankle_angle_r	subtalar_angle_r	mtp_angle_r	hip_flexion_l	hip_adduction_l	hip_rotation_l	knee_angle_l	knee_adduction_l	knee_angle_l_beta	ankle_angle_l	subtalar_angle_l	mtp_angle_l	lumbar_extension	lumbar_bending	lumbar_rotation	arm_flex_r	arm_add_r	arm_rot_r	elbow_flex_r	pro_sup_r	wrist_flex_r	wrist_dev_r	arm_flex_l	arm_add_l	arm_rot_l	elbow_flex_l	pro_sup_l	wrist_flex_l	wrist_dev_l
      2.05000000	      6.04248052	      4.28933152	     -3.38007981	     -0.50214160	      0.97510410	      0.31578919	    -11.44629182	     -8.60047505	    -31.79265033	     34.66440078	    -11.02674262	      0.60500793	     11.74056314	     28.64027344	     -7.55693066	     14.78614212	      4.09473499	    -22.35323001	     10.83943096	     -5.20947641	      0.18918376	     -6.58011829	     21.93688612	     -7.55693066	    -21.51900123	     -9.58508016	      4.94475303	     26.64223806	    -19.23075147	     28.05892569	     40.12130018	     90.00000001	      0.00000000	      0.00000000	    -12.25261932	    -11.18715602	      4.58537271	     37.58673122	     90.00000001	      0.00000000	      0.00000000
      2.06000000	      6.02870080	      4.52894842	     -3.22858895	     -0.49295265	      0.97680440	      0.31350158	    -10.92002670	     -9.41441487	    -31.49172946	     36.63864164	    -10.94231433	      0.63946493	      9.25686350	     26.72446349	     -7.55548590	     14.14567029	      4.59347775	    -22.55520240	     10.62887819	     -5.25110693	      0.18550892	     -6.24166341	     22.53908977	     -7.55548590	    -21.54094140	     -9.84288252	      4.59356572	     25.85398521	    -19.14352007	     27.78410585	     40.13744328	     90.00000001	      0.00000000	      0.00000000	    -11.70594972	    -11.48420683	      5.05687423	     37.42174462	     90.00000001	      0.00000000	      0.00000000
      2.07000000	      6.18041275	      4.44550156	     -3.04028446	     -0.48406347	      0.97875492	      0.31151260	    -10.46560634	     -9.80856389	    -31.34757391	     38.64588269	    -11.07118449	      0.67449790	      7.25193633	     25.62075552	     -7.55481195	     13.33632860	      4.62388202	    -22.49815096	     10.59570255	     -5.04421833	      0.18492990	     -5.75079221	     22.79040784	     -7.55481195	    -21.80961579	     -9.76416132	      4.24181821	     25.21456199	    -19.06542079	     27.67487954	     40.08899422	     90.00000001	      0.00000000	      0.00000000	    -11.12306162	    -11.71395047	      5.25486474	     37.38419785	     90.00000001	      0.00000000	      0.00000000
      2.08000000	      6.13827827	      4.71926439	     -2.92230198	     -0.47521713	      0.98045435	      0.30921768	     -9.68854744	    -10.58359406	    -29.92109353	     40.99150365	    -10.43978258	      0.71543670	      4.05462075	     20.45357322	     -7.55182951	     12.77034021	      5.20275093	    -22.78186519	     10.38662835	     -5.21039990	      0.18128086	     -5.24519134	     23.70936561	     -7.55182951	    -21.82581981	    -10.05251604	      4.02126518	     24.27866218	    -18.97104210	     27.07721185	     40.10438155	     90.00000001	      0.00000000	      0.00000000	    -10.41115656	    -12.19961997	      6.43218974	     37.24805160	     90.00000001	      0.00000000	      0.00000000
      2.09000000	      6.21272867	      4.74884775	     -2.71716921	     -0.46672417	      0.98220095	      0.30709101	     -8.90401379	    -11.10301216	    -29.22791903	     43.34188822	    -10.21286675	      0.75645865	      1.27546782	     17.17582349	     -7.54919181	     12.10069784	      5.45516816	    -22.73952846	     10.32098689	     -5.21671635	      0.18013520	     -4.66388594	     24.18256258	     -7.54919181	    -22.04340848	    -10.06256355	      3.68251314	     23.53892423	    -18.91077930	     26.87701136	     40.10142382	     90.00000001	      0.00000000	      0.00000000	     -9.67586977	    -12.54382498	      6.95397976	     37.19533197	     90.00000001	      0.00000000	      0.00000000
      2.10000000	      6.47079656	      4.65853864	     -2.49328487	     -0.45835701	      0.98405775	      0.30509817	     -8.22037978	    -11.51730986	    -29.28415226	     45.62820401	    -10.49822752	      0.79636239	     -0.83782556	     16.08621743	     -7.54852539	     11.19819097	      5.50144045	    -22.53448397	     10.28666976	     -5.01563033	      0.17953626	     -4.03877834	     24.38292893	     -7.54852539	    -22.46652139	     -9.93026395	      3.31866487	     22.90163898	    -18.85909946	     26.83368148	     40.03453113	     90.00000001	      0.00000000	      0.00000000	     -8.90535095	    -12.80552598	      7.09896360	     37.22287467	     90.00000001	      0.00000000	      0.00000000
      2.11000000	      6.39053612	      4.75379143	     -2.31786163	     -0.45058560	      0.98542094	      0.30298063	     -6.97731287	    -12.06756543	    -27.68825142	     48.33765658	     -9.69204180	      0.84365126	     -3.97019147	     10.21112491	     -7.54568489	     10.73744160	      5.89612416	    -22.41030143	     10.13311623	     -5.18179848	      0.17685624	     -3.52284855	     24.72872427	     -7.54568489	    -22.57976005	    -10.00290497	      3.05022155	     22.09821041	    -18.77957863	     26.44196402	     40.03922777	     90.00000001	      0.00000000	      0.00000000	     -8.01135329	    -13.31013445	      8.22167897	     37.19815232	     90.00000001	      0.00000000	      0.00000000
      2.12000000	      6.49116389	      4.74899003	     -2.08733331	     -0.44290017	      0.98684510	      0.30091424	     -5.87612787	    -12.52613410	    -26.99300812	     50.88126307	     -9.45362517	      0.88804557	     -6.33207958	      6.77459628	     -7.54338493	     10.06235606	      6.11133894	    -22.26952346	     10.01421668	     -5.18540530	      0.17478105	     -3.03442674	     25.08543123	     -7.54338493	    -22.89750053	     -9.93895821	      2.70015379	     21.42210921	    -18.72742549	     26.29851866	     39.99395810	     90.00000001	      0.00000000	      0.00000000	     -7.08924363	    -13.69948569	      8.82387312	     37.23904876	     90.00000001	      0.00000000	      0.00000000
      2.13000000	      6.57581317	      4.73631949	     -1.90413007	     -0.43544667	      0.98810804	      0.29905813	     -4.64845808	    -12.95508246	    -26.21845956	     53.43268327	     -9.18534558	      0.93257625	     -8.44397254	      3.34725502	     -7.54112009	      9.42377170	      6.28838079	    -22.15979641	      9.91403605	     -5.18189917	      0.17303257	     -2.54067150	     25.40932984	     -7.54112009	    -23.19684280	     -9.88424501	      2.40962997	     20.74630813	    -18.65508035	     26.15735346	     39.93700769	     90.00000001	      0.00000000	      0.00000000	     -6.10912352	    -14.13054403	      9.48033517	     37.27333608	     90.00000001	      0.00000000	      0.00000000
      2.14000000	      6.66976139	      4.72264952	     -1.74145539	     -0.42821324	      0.98925984	      0.29729250	     -3.34935712	    -13.34932214	    -25.44457708	     55.92310706	     -8.93781663	      0.97604235	    -10.23980412	      0.13905646	     -7.53879014	      8.77415924	      6.43729539	    -22.13270220	      9.79661361	     -5.15489532	      0.17098316	     -2.04226117	     25.78010152	     -7.53879014	    -23.51694253	     -9.82742894	      2.12658763	     20.09956991	    -18.58475187	     26.04528572	     39.86155113	     90.00000001	      0.00000000	      0.00000000	     -5.06459028	    -14.55278926	     10.11787155	     37.29564673	     90.00000001	      0.00000000	      0.00000000
      2.15000000	      6.73745981	      4.72912891	     -1.58731686	     -0.42118017	      0.99025024	      0.29558191	     -1.95185465	    -13.73924372	    -24.73419985	     58.34226190	     -8.73283760	      1.01826456	    -11.63831885	     -2.77524441	     -7.53659062	      8.17831916	      6.59872006	    -22.16454865	      9.67690930	     -5.14320787	      0.16889393	     -1.59806991	     26.21172452	     -7.53659062	    -23.81109334	     -9.78913411	      1.86706471	     19.45532073	    -18.51132564	     25.95940352	     39.75932274	     90.00000001	      0.00000000	      0.00000000	     -3.96598412	    -14.99186338	     10.76545931	     37.33294888	     90.00000001	      0.00000000	      0.00000000
      2.16000000	      6.92341053	      4.78132372	     -1.42725658	     -0.41404567	      0.99130843	      0.29397125	     -0.67186282	    -14.15789943	    -24.79955582	     60.49668968	     -9.17780247	      1.05586642	    -12.24351512	     -4.10177009	     -7.53588839	      7.34921620	      6.83377182	    -22.08608234	      9.37407605	     -5.11127965	      0.16360849	     -1.09872638	     26.63127012	     -7.53588839	    -24.21065043	     -9.79724962	      1.54508636	     18.83595474	    -18.42134610	     26.01435516	     39.62044897	     90.00000001	      0.00000000	      0.00000000	     -2.84364025	    -15.36199565	     11.03627713	     37.28146677	     90.00000001	      0.00000000	      0.00000000
      2.17000000	      6.83184420	      4.79567165	     -1.31683896	     -0.40759633	      0.99185350	      0.29245884	      1.04590336	    -14.46072005	    -23.46766652	     62.81249533	     -8.47284213	      1.09628485	    -13.20536462	     -7.47830439	     -7.53386381	      7.05251436	      6.93105704	    -22.35055992	      9.42840896	     -5.11935760	      0.16455678	     -0.77928235	     27.16043144	     -7.53386381	    -24.34897140	     -9.77062931	      1.35719057	     18.18930788	    -18.33214227	     25.84013636	     39.52242239	     90.00000001	      0.00000000	      0.00000000	     -1.64221004	    -15.88820031	     12.02751648	     37.35260652	     90.00000001	      0.00000000	      0.00000000
      2.18000000	      7.15642972	      4.54407796	     -1.01133448	     -0.40087252	      0.99316918	      0.29094036	      2.06743500	    -14.40810244	    -23.47208258	     64.44605086	     -8.66241100	      1.12479578	    -13.10274120	     -7.55084644	     -7.53349530	      6.20498373	      6.70148772	    -22.27577211	      9.45517254	     -4.95503024	      0.16502389	     -0.53507048	     27.13265889	     -7.53349530	    -24.96242642	     -9.38938493	      0.93147829	     17.69910507	    -18.22554130	     25.88004706	     39.38493207	     90.00000001	      0.00000000	      0.00000000	     -0.52759285	    -16.19835816	     11.98332866	     37.53428052	     90.00000001	      0.00000000	      0.00000000
      2.19000000	      6.86811111	      4.92959944	     -1.06381298	     -0.39446859	      0.99309757	      0.28969036	      4.20736608	    -15.08032720	    -22.47324155	     66.58097557	     -8.42196219	      1.16205724	    -13.10072675	    -10.40899821	     -7.53191816	      6.02514020	      7.27401939	    -22.58914419	      9.20074324	     -5.06189530	      0.16058326	     -0.05130938	     28.15220263	     -7.53191816	    -24.80277405	     -9.82206294	      0.84760393	     16.91793901	    -18.11255797	     25.80738337	     39.24327051	     90.00000001	      0.00000000	      0.00000000	      0.82287677	    -16.76452862	     13.08888973	     37.31080085	     90.00000001	      0.00000000	      0.00000000
      2.20000000	      7.04645507	      4.90003706	     -0.89346172	     -0.38785040	      0.99400858	      0.28846668	      5.52530824	    -15.18196476	    -22.41867844	     67.97689970	     -8.70247190	      1.18642072	    -12.41003657	    -11.00464638	     -7.53137407	      5.26242533	      7.32147669	    -22.51656315	      9.00188621	     -4.96141844	      0.15711255	      0.37003978	     28.48088274	     -7.53137407	    -25.18441122	     -9.72839570	      0.54363932	     16.32772486	    -17.98695502	     25.89243408	     39.05400289	     90.00000001	      0.00000000	      0.00000000	      2.07204890	    -17.09672861	     13.19661558	     37.21882700	     90.00000001	      0.00000000	      0.00000000
